<svg xmlns="http://www.w3.org/2000/svg" width="400" height="520" viewBox="0 0 400 520">
  <rect width="400" height="520" fill="#2e4057"/>
  <!-- Art Nouveau decorative curves -->
  <path d="M200 60 Q160 120 200 180 Q240 240 200 300" fill="none" stroke="#d4af37" stroke-width="1.5" opacity="0.3"/>
  <path d="M180 60 Q140 120 180 180 Q220 240 180 300" fill="none" stroke="#d4af37" stroke-width="1" opacity="0.2"/>
  <path d="M220 60 Q180 120 220 180 Q260 240 220 300" fill="none" stroke="#d4af37" stroke-width="1" opacity="0.2"/>
  <!-- Ornamental frame -->
  <rect x="60" y="40" width="280" height="440" rx="8" fill="none" stroke="#d4af37" stroke-width="1.5" opacity="0.3"/>
  <path d="M60 80 Q200 60 340 80" fill="none" stroke="#d4af37" stroke-width="1" opacity="0.2"/>
  <path d="M60 440 Q200 460 340 440" fill="none" stroke="#d4af37" stroke-width="1" opacity="0.2"/>
  <!-- Corner ornaments -->
  <circle cx="80" cy="60" r="8" fill="none" stroke="#d4af37" stroke-width="1" opacity="0.3"/>
  <circle cx="320" cy="60" r="8" fill="none" stroke="#d4af37" stroke-width="1" opacity="0.3"/>
  <circle cx="80" cy="460" r="8" fill="none" stroke="#d4af37" stroke-width="1" opacity="0.3"/>
  <circle cx="320" cy="460" r="8" fill="none" stroke="#d4af37" stroke-width="1" opacity="0.3"/>
  <text x="200" y="360" text-anchor="middle" font-family="PingFang SC, Microsoft YaHei, sans-serif" font-size="28" fill="#d4af37" font-weight="bold">新艺术</text>
  <text x="200" y="400" text-anchor="middle" font-family="Inter, sans-serif" font-size="18" fill="#d4af37" opacity="0.7">Art Nouveau</text>
</svg>