<svg xmlns="http://www.w3.org/2000/svg" width="400" height="520" viewBox="0 0 400 520">
  <rect width="400" height="520" fill="#1a3a5c"/>
  <!-- Grid lines -->
  <line x1="0" y1="52" x2="400" y2="52" stroke="#a8d8ea" stroke-width="0.3" opacity="0.2"/>
  <line x1="0" y1="104" x2="400" y2="104" stroke="#a8d8ea" stroke-width="0.3" opacity="0.2"/>
  <line x1="0" y1="156" x2="400" y2="156" stroke="#a8d8ea" stroke-width="0.3" opacity="0.2"/>
  <line x1="0" y1="208" x2="400" y2="208" stroke="#a8d8ea" stroke-width="0.3" opacity="0.2"/>
  <line x1="0" y1="260" x2="400" y2="260" stroke="#a8d8ea" stroke-width="0.3" opacity="0.2"/>
  <line x1="0" y1="312" x2="400" y2="312" stroke="#a8d8ea" stroke-width="0.3" opacity="0.2"/>
  <line x1="0" y1="364" x2="400" y2="364" stroke="#a8d8ea" stroke-width="0.3" opacity="0.2"/>
  <line x1="0" y1="416" x2="400" y2="416" stroke="#a8d8ea" stroke-width="0.3" opacity="0.2"/>
  <line x1="0" y1="468" x2="400" y2="468" stroke="#a8d8ea" stroke-width="0.3" opacity="0.2"/>
  <line x1="50" y1="0" x2="50" y2="520" stroke="#a8d8ea" stroke-width="0.3" opacity="0.2"/>
  <line x1="100" y1="0" x2="100" y2="520" stroke="#a8d8ea" stroke-width="0.3" opacity="0.2"/>
  <line x1="150" y1="0" x2="150" y2="520" stroke="#a8d8ea" stroke-width="0.3" opacity="0.2"/>
  <line x1="200" y1="0" x2="200" y2="520" stroke="#a8d8ea" stroke-width="0.3" opacity="0.2"/>
  <line x1="250" y1="0" x2="250" y2="520" stroke="#a8d8ea" stroke-width="0.3" opacity="0.2"/>
  <line x1="300" y1="0" x2="300" y2="520" stroke="#a8d8ea" stroke-width="0.3" opacity="0.2"/>
  <line x1="350" y1="0" x2="350" y2="520" stroke="#a8d8ea" stroke-width="0.3" opacity="0.2"/>
  <!-- Blueprint shapes -->
  <rect x="100" y="130" width="200" height="120" fill="none" stroke="#a8d8ea" stroke-width="1" opacity="0.4"/>
  <line x1="100" y1="130" x2="300" y2="250" stroke="#a8d8ea" stroke-width="0.5" opacity="0.2"/>
  <line x1="300" y1="130" x2="100" y2="250" stroke="#a8d8ea" stroke-width="0.5" opacity="0.2"/>
  <circle cx="200" cy="190" r="30" fill="none" stroke="#a8d8ea" stroke-width="1" opacity="0.4"/>
  <text x="200" y="320" text-anchor="middle" font-family="PingFang SC, Microsoft YaHei, sans-serif" font-size="28" fill="#a8d8ea" font-weight="bold">蓝图风</text>
  <text x="200" y="360" text-anchor="middle" font-family="Inter, sans-serif" font-size="18" fill="#a8d8ea" opacity="0.7">Blueprint</text>
</svg>