<svg xmlns="http://www.w3.org/2000/svg" viewBox="0 0 400 520" width="400" height="520">
  <rect width="400" height="520" fill="#f8f9fa" rx="12"/>
  
  <rect x="24" y="20" width="352" height="478" rx="14" fill="#f0f4f8" stroke="#e5e7eb" stroke-width="1"/>
  <rect x="60" y="44" width="180" height="16" rx="4" fill="#6366f1" opacity="0.8"/>
  
      <rect x="44" y="82" width="200" height="44" rx="16" fill="#ffffff" stroke="#e5e7eb" stroke-width="1"/>
      <rect x="58" y="94" width="160" height="8" rx="3" fill="#e4e7eb"/>
      <rect x="58" y="110" width="140" height="8" rx="3" fill="#e4e7eb"/>
      
      <rect x="176" y="140" width="180" height="36" rx="16" fill="#6366f1" />
      <rect x="190" y="152" width="140" height="8" rx="3" fill="rgba(255,255,255,0.4)"/>
      
      
      <rect x="44" y="190" width="220" height="52" rx="16" fill="#ffffff" stroke="#e5e7eb" stroke-width="1"/>
      <rect x="58" y="202" width="180" height="8" rx="3" fill="#e4e7eb"/>
      <rect x="58" y="218" width="160" height="8" rx="3" fill="#e4e7eb"/>
      
      <rect x="196" y="258" width="160" height="36" rx="16" fill="#6366f1" />
      <rect x="210" y="270" width="120" height="8" rx="3" fill="rgba(255,255,255,0.4)"/>
      
      
      <rect x="44" y="308" width="240" height="44" rx="16" fill="#ffffff" stroke="#e5e7eb" stroke-width="1"/>
      <rect x="58" y="320" width="200" height="8" rx="3" fill="#e4e7eb"/>
      <rect x="58" y="336" width="180" height="8" rx="3" fill="#e4e7eb"/>
      
      <rect x="156" y="366" width="200" height="52" rx="16" fill="#6366f1" />
      <rect x="170" y="378" width="160" height="8" rx="3" fill="rgba(255,255,255,0.4)"/>
      <rect x="170" y="394" width="140" height="8" rx="3" fill="rgba(255,255,255,0.4)"/>
      
  <rect x="44" y="438" width="312" height="40" rx="20" fill="white" stroke="#e5e7eb" stroke-width="1"/>
  <rect x="64" y="452" width="100" height="10" rx="3" fill="#e4e7eb"/>
  <circle cx="332" cy="458" r="14" fill="#6366f1"/>
  <polygon points="328,454 328,462 336,458" fill="white"/>
  <text x="200" y="506" text-anchor="middle" font-family="system-ui,sans-serif" font-size="13" fill="#9ca3af">Dialogue Chat</text>
  
</svg>