<svg xmlns="http://www.w3.org/2000/svg" width="400" height="520" viewBox="0 0 400 520">
  <rect width="400" height="520" fill="#16a085"/>
  <polygon points="0,0 200,80 0,200" fill="#1abc9c" opacity="0.4"/>
  <polygon points="200,80 400,0 400,160" fill="#148f77" opacity="0.4"/>
  <polygon points="0,200 200,80 200,300" fill="#17b089" opacity="0.3"/>
  <polygon points="200,80 400,160 200,300" fill="#1dd1a1" opacity="0.2"/>
  <polygon points="0,200 200,300 0,400" fill="#0e6655" opacity="0.3"/>
  <polygon points="200,300 400,160 400,400" fill="#1abc9c" opacity="0.25"/>
  <polygon points="0,400 200,300 200,520" fill="#148f77" opacity="0.3"/>
  <polygon points="200,300 400,400 200,520" fill="#10ac84" opacity="0.2"/>
  <polygon points="200,520 400,400 400,520" fill="#0e6655" opacity="0.3"/>
  <polygon points="0,400 200,520 0,520" fill="#1abc9c" opacity="0.2"/>
  <text x="200" y="260" text-anchor="middle" font-family="PingFang SC, Microsoft YaHei, sans-serif" font-size="28" fill="#ffffff" font-weight="bold">低多边形</text>
  <text x="200" y="300" text-anchor="middle" font-family="Inter, sans-serif" font-size="18" fill="#ffffff" opacity="0.7">Low Poly</text>
</svg>