<svg xmlns="http://www.w3.org/2000/svg" viewBox="0 0 400 520" width="400" height="520">
  <rect width="400" height="520" fill="#f8f9fa" rx="12"/>
  
  <rect x="24" y="20" width="352" height="478" rx="14" fill="#fafafa" stroke="#e5e7eb" stroke-width="1"/>
  <rect x="40" y="40" width="150" height="120" rx="10" fill="#fecdd3"/>
  <rect x="200" y="40" width="160" height="80" rx="10" fill="#bfdbfe"/>
  <rect x="200" y="130" width="80" height="80" rx="10" fill="#fde68a"/>
  <rect x="290" y="130" width="70" height="80" rx="10" fill="#c4b5fd"/>
  <rect x="40" y="172" width="80" height="100" rx="10" fill="#a7f3d0"/>
  <rect x="130" y="172" width="60" height="60" rx="10" fill="#fed7aa"/>
  <rect x="130" y="240" width="100" height="80" rx="10" fill="#e9d5ff"/>
  <rect x="240" y="222" width="120" height="98" rx="10" fill="#fca5a5"/>
  <rect x="40" y="282" width="80" height="80" rx="10" fill="#99f6e4"/>
  <rect x="40" y="372" width="160" height="100" rx="10" fill="#fbcfe8"/>
  <rect x="210" y="330" width="150" height="70" rx="10" fill="#c7d2fe"/>
  <rect x="210" y="410" width="70" height="62" rx="10" fill="#fef08a"/>
  <rect x="290" y="410" width="70" height="62" rx="10" fill="#bbf7d0"/>
  <text x="200" y="510" text-anchor="middle" font-family="system-ui,sans-serif" font-size="13" fill="#9ca3af">Mood Board</text>
  
</svg>