<svg xmlns="http://www.w3.org/2000/svg" viewBox="0 0 400 520" width="400" height="520">
  <rect width="400" height="520" fill="#f8f9fa" rx="12"/>
  
  <rect x="24" y="30" width="168" height="200" rx="12" fill="white" stroke="#e5e7eb" stroke-width="1"/>
  <rect x="24" y="30" width="168" height="100" rx="12" fill="#dbeafe"/>
  <rect x="24" y="118" width="168" height="12" rx="0" fill="white"/>
  <rect x="38" y="146" width="110" height="10" rx="3" fill="#d0d5db"/>
  <rect x="38" y="164" width="140" height="8" rx="3" fill="#e4e7eb"/>
  <rect x="38" y="180" width="100" height="8" rx="3" fill="#e4e7eb"/>
  <rect x="38" y="202" width="50" height="18" rx="9" fill="#93c5fd"/>
  <rect x="208" y="30" width="168" height="200" rx="12" fill="white" stroke="#e5e7eb" stroke-width="1"/>
  <rect x="208" y="30" width="168" height="100" rx="12" fill="#fce7f3"/>
  <rect x="208" y="118" width="168" height="12" rx="0" fill="white"/>
  <rect x="222" y="146" width="110" height="10" rx="3" fill="#d0d5db"/>
  <rect x="222" y="164" width="140" height="8" rx="3" fill="#e4e7eb"/>
  <rect x="222" y="180" width="100" height="8" rx="3" fill="#e4e7eb"/>
  <rect x="222" y="202" width="50" height="18" rx="9" fill="#f9a8d4"/>
  <rect x="24" y="248" width="168" height="200" rx="12" fill="white" stroke="#e5e7eb" stroke-width="1"/>
  <rect x="24" y="248" width="168" height="100" rx="12" fill="#d1fae5"/>
  <rect x="24" y="336" width="168" height="12" rx="0" fill="white"/>
  <rect x="38" y="364" width="110" height="10" rx="3" fill="#d0d5db"/>
  <rect x="38" y="382" width="140" height="8" rx="3" fill="#e4e7eb"/>
  <rect x="38" y="398" width="100" height="8" rx="3" fill="#e4e7eb"/>
  <rect x="38" y="420" width="50" height="18" rx="9" fill="#6ee7b7"/>
  <rect x="208" y="248" width="168" height="200" rx="12" fill="white" stroke="#e5e7eb" stroke-width="1"/>
  <rect x="208" y="248" width="168" height="100" rx="12" fill="#fef3c7"/>
  <rect x="208" y="336" width="168" height="12" rx="0" fill="white"/>
  <rect x="222" y="364" width="110" height="10" rx="3" fill="#d0d5db"/>
  <rect x="222" y="382" width="140" height="8" rx="3" fill="#e4e7eb"/>
  <rect x="222" y="398" width="100" height="8" rx="3" fill="#e4e7eb"/>
  <rect x="222" y="420" width="50" height="18" rx="9" fill="#fcd34d"/>
  <text x="200" y="490" text-anchor="middle" font-family="system-ui,sans-serif" font-size="13" fill="#9ca3af">Multi-Card Grid</text>
  
</svg>