<svg xmlns="http://www.w3.org/2000/svg" width="400" height="520" viewBox="0 0 400 520">
  <rect width="400" height="520" fill="#2c3e50"/>
  <!-- Pixel border top -->
  <rect x="0" y="0" width="20" height="20" fill="#1abc9c" opacity="0.6"/>
  <rect x="20" y="0" width="20" height="20" fill="#1abc9c" opacity="0.4"/>
  <rect x="40" y="0" width="20" height="20" fill="#1abc9c" opacity="0.6"/>
  <rect x="60" y="0" width="20" height="20" fill="#1abc9c" opacity="0.4"/>
  <rect x="80" y="0" width="20" height="20" fill="#1abc9c" opacity="0.6"/>
  <rect x="100" y="0" width="20" height="20" fill="#1abc9c" opacity="0.4"/>
  <rect x="120" y="0" width="20" height="20" fill="#1abc9c" opacity="0.6"/>
  <rect x="140" y="0" width="20" height="20" fill="#1abc9c" opacity="0.4"/>
  <rect x="160" y="0" width="20" height="20" fill="#1abc9c" opacity="0.6"/>
  <rect x="180" y="0" width="20" height="20" fill="#1abc9c" opacity="0.4"/>
  <rect x="200" y="0" width="20" height="20" fill="#1abc9c" opacity="0.6"/>
  <rect x="220" y="0" width="20" height="20" fill="#1abc9c" opacity="0.4"/>
  <rect x="240" y="0" width="20" height="20" fill="#1abc9c" opacity="0.6"/>
  <rect x="260" y="0" width="20" height="20" fill="#1abc9c" opacity="0.4"/>
  <rect x="280" y="0" width="20" height="20" fill="#1abc9c" opacity="0.6"/>
  <rect x="300" y="0" width="20" height="20" fill="#1abc9c" opacity="0.4"/>
  <rect x="320" y="0" width="20" height="20" fill="#1abc9c" opacity="0.6"/>
  <rect x="340" y="0" width="20" height="20" fill="#1abc9c" opacity="0.4"/>
  <rect x="360" y="0" width="20" height="20" fill="#1abc9c" opacity="0.6"/>
  <rect x="380" y="0" width="20" height="20" fill="#1abc9c" opacity="0.4"/>
  <!-- Pixel border bottom -->
  <rect x="0" y="500" width="20" height="20" fill="#1abc9c" opacity="0.4"/>
  <rect x="20" y="500" width="20" height="20" fill="#1abc9c" opacity="0.6"/>
  <rect x="40" y="500" width="20" height="20" fill="#1abc9c" opacity="0.4"/>
  <rect x="60" y="500" width="20" height="20" fill="#1abc9c" opacity="0.6"/>
  <rect x="80" y="500" width="20" height="20" fill="#1abc9c" opacity="0.4"/>
  <rect x="100" y="500" width="20" height="20" fill="#1abc9c" opacity="0.6"/>
  <rect x="120" y="500" width="20" height="20" fill="#1abc9c" opacity="0.4"/>
  <rect x="140" y="500" width="20" height="20" fill="#1abc9c" opacity="0.6"/>
  <rect x="160" y="500" width="20" height="20" fill="#1abc9c" opacity="0.4"/>
  <rect x="180" y="500" width="20" height="20" fill="#1abc9c" opacity="0.6"/>
  <rect x="200" y="500" width="20" height="20" fill="#1abc9c" opacity="0.4"/>
  <rect x="220" y="500" width="20" height="20" fill="#1abc9c" opacity="0.6"/>
  <rect x="240" y="500" width="20" height="20" fill="#1abc9c" opacity="0.4"/>
  <rect x="260" y="500" width="20" height="20" fill="#1abc9c" opacity="0.6"/>
  <rect x="280" y="500" width="20" height="20" fill="#1abc9c" opacity="0.4"/>
  <rect x="300" y="500" width="20" height="20" fill="#1abc9c" opacity="0.6"/>
  <rect x="320" y="500" width="20" height="20" fill="#1abc9c" opacity="0.4"/>
  <rect x="340" y="500" width="20" height="20" fill="#1abc9c" opacity="0.6"/>
  <rect x="360" y="500" width="20" height="20" fill="#1abc9c" opacity="0.4"/>
  <rect x="380" y="500" width="20" height="20" fill="#1abc9c" opacity="0.6"/>
  <!-- Pixel art heart -->
  <rect x="160" y="140" width="20" height="20" fill="#1abc9c" opacity="0.5"/>
  <rect x="180" y="120" width="20" height="20" fill="#1abc9c" opacity="0.5"/>
  <rect x="200" y="140" width="20" height="20" fill="#1abc9c" opacity="0.5"/>
  <rect x="220" y="120" width="20" height="20" fill="#1abc9c" opacity="0.5"/>
  <rect x="240" y="140" width="20" height="20" fill="#1abc9c" opacity="0.5"/>
  <rect x="140" y="160" width="20" height="20" fill="#1abc9c" opacity="0.5"/>
  <rect x="160" y="160" width="20" height="20" fill="#1abc9c" opacity="0.5"/>
  <rect x="180" y="160" width="20" height="20" fill="#1abc9c" opacity="0.5"/>
  <rect x="200" y="160" width="20" height="20" fill="#1abc9c" opacity="0.5"/>
  <rect x="220" y="160" width="20" height="20" fill="#1abc9c" opacity="0.5"/>
  <rect x="240" y="160" width="20" height="20" fill="#1abc9c" opacity="0.5"/>
  <rect x="260" y="160" width="20" height="20" fill="#1abc9c" opacity="0.5"/>
  <rect x="160" y="180" width="20" height="20" fill="#1abc9c" opacity="0.5"/>
  <rect x="180" y="180" width="20" height="20" fill="#1abc9c" opacity="0.5"/>
  <rect x="200" y="180" width="20" height="20" fill="#1abc9c" opacity="0.5"/>
  <rect x="220" y="180" width="20" height="20" fill="#1abc9c" opacity="0.5"/>
  <rect x="240" y="180" width="20" height="20" fill="#1abc9c" opacity="0.5"/>
  <rect x="180" y="200" width="20" height="20" fill="#1abc9c" opacity="0.5"/>
  <rect x="200" y="200" width="20" height="20" fill="#1abc9c" opacity="0.5"/>
  <rect x="220" y="200" width="20" height="20" fill="#1abc9c" opacity="0.5"/>
  <rect x="200" y="220" width="20" height="20" fill="#1abc9c" opacity="0.5"/>
  <text x="200" y="310" text-anchor="middle" font-family="PingFang SC, Microsoft YaHei, sans-serif" font-size="28" fill="#1abc9c" font-weight="bold">像素风</text>
  <text x="200" y="350" text-anchor="middle" font-family="monospace" font-size="18" fill="#1abc9c" opacity="0.7">Pixel Art</text>
</svg>