<svg xmlns="http://www.w3.org/2000/svg" viewBox="0 0 400 520" width="400" height="520">
  <rect width="400" height="520" fill="#f8f9fa" rx="12"/>
  
  <rect x="30" y="20" width="340" height="478" rx="14" fill="#fffbeb" stroke="#fde68a" stroke-width="1"/>
  <rect x="50" y="44" width="180" height="18" rx="4" fill="#92400e" opacity="0.7"/>
  <line x1="50" y1="76" x2="350" y2="76" stroke="#e5c07b" stroke-width="1"/>
  
    <rect x="50" y="92" width="154" height="10" rx="3" fill="#b0946b"/>
    <rect x="50" y="108" width="200" height="7" rx="3" fill="#d4c5b2"/>
    <line x1="50" y1="126" x2="350" y2="126" stroke="#f0e6d0" stroke-width="0.5" stroke-dasharray="3,3"/>
    <rect x="306" y="92" width="44" height="16" rx="4" fill="#fef3c7"/>
    <rect x="312" y="95" width="32" height="10" rx="3" fill="#d97706" opacity="0.6"/>
    
    <rect x="50" y="142" width="177" height="10" rx="3" fill="#b0946b"/>
    <rect x="50" y="158" width="199" height="7" rx="3" fill="#d4c5b2"/>
    <line x1="50" y1="176" x2="350" y2="176" stroke="#f0e6d0" stroke-width="0.5" stroke-dasharray="3,3"/>
    <rect x="306" y="142" width="44" height="16" rx="4" fill="#fef3c7"/>
    <rect x="312" y="145" width="32" height="10" rx="3" fill="#d97706" opacity="0.6"/>
    
    <rect x="50" y="192" width="151" height="10" rx="3" fill="#b0946b"/>
    <rect x="50" y="208" width="208" height="7" rx="3" fill="#d4c5b2"/>
    <line x1="50" y1="226" x2="350" y2="226" stroke="#f0e6d0" stroke-width="0.5" stroke-dasharray="3,3"/>
    <rect x="306" y="192" width="44" height="16" rx="4" fill="#fef3c7"/>
    <rect x="312" y="195" width="32" height="10" rx="3" fill="#d97706" opacity="0.6"/>
    
    <rect x="50" y="242" width="141" height="10" rx="3" fill="#b0946b"/>
    <rect x="50" y="258" width="188" height="7" rx="3" fill="#d4c5b2"/>
    <line x1="50" y1="276" x2="350" y2="276" stroke="#f0e6d0" stroke-width="0.5" stroke-dasharray="3,3"/>
    <rect x="306" y="242" width="44" height="16" rx="4" fill="#fef3c7"/>
    <rect x="312" y="245" width="32" height="10" rx="3" fill="#d97706" opacity="0.6"/>
    
    <rect x="50" y="292" width="163" height="10" rx="3" fill="#b0946b"/>
    <rect x="50" y="308" width="197" height="7" rx="3" fill="#d4c5b2"/>
    <line x1="50" y1="326" x2="350" y2="326" stroke="#f0e6d0" stroke-width="0.5" stroke-dasharray="3,3"/>
    <rect x="306" y="292" width="44" height="16" rx="4" fill="#fef3c7"/>
    <rect x="312" y="295" width="32" height="10" rx="3" fill="#d97706" opacity="0.6"/>
    
    <rect x="50" y="342" width="142" height="10" rx="3" fill="#b0946b"/>
    <rect x="50" y="358" width="189" height="7" rx="3" fill="#d4c5b2"/>
    <line x1="50" y1="376" x2="350" y2="376" stroke="#f0e6d0" stroke-width="0.5" stroke-dasharray="3,3"/>
    <rect x="306" y="342" width="44" height="16" rx="4" fill="#fef3c7"/>
    <rect x="312" y="345" width="32" height="10" rx="3" fill="#d97706" opacity="0.6"/>
    
    <rect x="50" y="392" width="172" height="10" rx="3" fill="#b0946b"/>
    <rect x="50" y="408" width="199" height="7" rx="3" fill="#d4c5b2"/>
    <line x1="50" y1="426" x2="350" y2="426" stroke="#f0e6d0" stroke-width="0.5" stroke-dasharray="3,3"/>
    <rect x="306" y="392" width="44" height="16" rx="4" fill="#fef3c7"/>
    <rect x="312" y="395" width="32" height="10" rx="3" fill="#d97706" opacity="0.6"/>
    
    <rect x="50" y="442" width="179" height="10" rx="3" fill="#b0946b"/>
    <rect x="50" y="458" width="215" height="7" rx="3" fill="#d4c5b2"/>
    <line x1="50" y1="476" x2="350" y2="476" stroke="#f0e6d0" stroke-width="0.5" stroke-dasharray="3,3"/>
    <rect x="306" y="442" width="44" height="16" rx="4" fill="#fef3c7"/>
    <rect x="312" y="445" width="32" height="10" rx="3" fill="#d97706" opacity="0.6"/>
    
  <text x="200" y="510" text-anchor="middle" font-family="system-ui,sans-serif" font-size="13" fill="#9ca3af">Price List Menu</text>
  
</svg>