<svg xmlns="http://www.w3.org/2000/svg" viewBox="0 0 400 520" width="400" height="520">
  <rect width="400" height="520" fill="#f8f9fa" rx="12"/>
  
  <rect x="24" y="20" width="352" height="478" rx="14" fill="white" stroke="#e5e7eb" stroke-width="1"/>
  <rect x="24" y="20" width="352" height="180" rx="14" fill="#f0f4f8"/>
  <rect x="24" y="184" width="352" height="16" rx="0" fill="white"/>
  <rect x="140" y="80" width="120" height="80" rx="12" fill="#d0d5db" opacity="0.5"/>
  <rect x="155" y="96" width="90" height="48" rx="6" fill="#c5cdd6" opacity="0.7"/>
  <rect x="50" y="218" width="200" height="14" rx="4" fill="#374151" opacity="0.7"/>
  <g transform="translate(50, 244)">
    <text x="0" y="12" font-family="system-ui,sans-serif" font-size="16" fill="#fbbf24">★</text><text x="22" y="12" font-family="system-ui,sans-serif" font-size="16" fill="#fbbf24">★</text><text x="44" y="12" font-family="system-ui,sans-serif" font-size="16" fill="#fbbf24">★</text><text x="66" y="12" font-family="system-ui,sans-serif" font-size="16" fill="#fbbf24">★</text><text x="88" y="12" font-family="system-ui,sans-serif" font-size="16" fill="#d1d5db">★</text>
    <rect x="120" y="2" width="40" height="12" rx="3" fill="#fbbf24" opacity="0.3"/>
  </g>
  <line x1="50" y1="274" x2="350" y2="274" stroke="#f0f0f0" stroke-width="1"/>
  <rect x="50" y="286" width="60" height="12" rx="4" fill="#10b981" opacity="0.7"/>
  
    <text x="58" y="317" font-family="system-ui,sans-serif" font-size="10" fill="#10b981">+</text>
    <rect x="72" y="308" width="218" height="8" rx="3" fill="#d1fae5"/>
    
    <text x="58" y="339" font-family="system-ui,sans-serif" font-size="10" fill="#10b981">+</text>
    <rect x="72" y="330" width="213" height="8" rx="3" fill="#d1fae5"/>
    
    <text x="58" y="361" font-family="system-ui,sans-serif" font-size="10" fill="#10b981">+</text>
    <rect x="72" y="352" width="181" height="8" rx="3" fill="#d1fae5"/>
    
  <rect x="50" y="378" width="60" height="12" rx="4" fill="#ef4444" opacity="0.7"/>
  
    <text x="58" y="409" font-family="system-ui,sans-serif" font-size="10" fill="#ef4444">-</text>
    <rect x="72" y="400" width="178" height="8" rx="3" fill="#fee2e2"/>
    
    <text x="58" y="431" font-family="system-ui,sans-serif" font-size="10" fill="#ef4444">-</text>
    <rect x="72" y="422" width="180" height="8" rx="3" fill="#fee2e2"/>
    
  <rect x="50" y="454" width="300" height="30" rx="15" fill="#6366f1" opacity="0.8"/>
  <rect x="140" y="465" width="120" height="8" rx="3" fill="white"/>
  <text x="200" y="510" text-anchor="middle" font-family="system-ui,sans-serif" font-size="13" fill="#9ca3af">Product Review Card</text>
  
</svg>