<svg xmlns="http://www.w3.org/2000/svg" viewBox="0 0 400 520" width="400" height="520">
  <rect width="400" height="520" fill="#f8f9fa" rx="12"/>
  
  <rect x="24" y="20" width="352" height="478" rx="14" fill="white" stroke="#e5e7eb" stroke-width="1"/>
  <rect x="50" y="44" width="140" height="18" rx="4" fill="#7c3aed" opacity="0.8"/>
  
    <rect x="44" y="84" width="312" height="38" rx="10" fill="#f5f3ff" stroke="#ddd6fe" stroke-width="1"/>
    <rect x="56" y="90" width="28" height="24" rx="12" fill="#7c3aed"/>
    <text x="70" y="107" text-anchor="middle" font-family="system-ui,sans-serif" font-size="13" fill="white" font-weight="bold">Q</text>
    <rect x="94" y="96" width="212" height="10" rx="3" fill="#a78bfa" opacity="0.5"/>
    <rect x="44" y="132" width="312" height="40" rx="10" fill="#f8f9fa" stroke="#e5e7eb" stroke-width="0.5"/>
    <rect x="56" y="138" width="28" height="24" rx="12" fill="#e5e7eb"/>
    <text x="70" y="155" text-anchor="middle" font-family="system-ui,sans-serif" font-size="13" fill="#6b7280" font-weight="bold">A</text>
    <rect x="94" y="142" width="254" height="8" rx="3" fill="#e4e7eb"/>
    <rect x="94" y="156" width="186" height="8" rx="3" fill="#e4e7eb"/>
    
    <rect x="44" y="184" width="312" height="38" rx="10" fill="#f5f3ff" stroke="#ddd6fe" stroke-width="1"/>
    <rect x="56" y="190" width="28" height="24" rx="12" fill="#7c3aed"/>
    <text x="70" y="207" text-anchor="middle" font-family="system-ui,sans-serif" font-size="13" fill="white" font-weight="bold">Q</text>
    <rect x="94" y="196" width="209" height="10" rx="3" fill="#a78bfa" opacity="0.5"/>
    <rect x="44" y="232" width="312" height="40" rx="10" fill="#f8f9fa" stroke="#e5e7eb" stroke-width="0.5"/>
    <rect x="56" y="238" width="28" height="24" rx="12" fill="#e5e7eb"/>
    <text x="70" y="255" text-anchor="middle" font-family="system-ui,sans-serif" font-size="13" fill="#6b7280" font-weight="bold">A</text>
    <rect x="94" y="242" width="272" height="8" rx="3" fill="#e4e7eb"/>
    <rect x="94" y="256" width="202" height="8" rx="3" fill="#e4e7eb"/>
    
    <rect x="44" y="284" width="312" height="38" rx="10" fill="#f5f3ff" stroke="#ddd6fe" stroke-width="1"/>
    <rect x="56" y="290" width="28" height="24" rx="12" fill="#7c3aed"/>
    <text x="70" y="307" text-anchor="middle" font-family="system-ui,sans-serif" font-size="13" fill="white" font-weight="bold">Q</text>
    <rect x="94" y="296" width="212" height="10" rx="3" fill="#a78bfa" opacity="0.5"/>
    <rect x="44" y="332" width="312" height="40" rx="10" fill="#f8f9fa" stroke="#e5e7eb" stroke-width="0.5"/>
    <rect x="56" y="338" width="28" height="24" rx="12" fill="#e5e7eb"/>
    <text x="70" y="355" text-anchor="middle" font-family="system-ui,sans-serif" font-size="13" fill="#6b7280" font-weight="bold">A</text>
    <rect x="94" y="342" width="268" height="8" rx="3" fill="#e4e7eb"/>
    <rect x="94" y="356" width="213" height="8" rx="3" fill="#e4e7eb"/>
    
    <rect x="44" y="384" width="312" height="38" rx="10" fill="#f5f3ff" stroke="#ddd6fe" stroke-width="1"/>
    <rect x="56" y="390" width="28" height="24" rx="12" fill="#7c3aed"/>
    <text x="70" y="407" text-anchor="middle" font-family="system-ui,sans-serif" font-size="13" fill="white" font-weight="bold">Q</text>
    <rect x="94" y="396" width="191" height="10" rx="3" fill="#a78bfa" opacity="0.5"/>
    <rect x="44" y="432" width="312" height="40" rx="10" fill="#f8f9fa" stroke="#e5e7eb" stroke-width="0.5"/>
    <rect x="56" y="438" width="28" height="24" rx="12" fill="#e5e7eb"/>
    <text x="70" y="455" text-anchor="middle" font-family="system-ui,sans-serif" font-size="13" fill="#6b7280" font-weight="bold">A</text>
    <rect x="94" y="442" width="254" height="8" rx="3" fill="#e4e7eb"/>
    <rect x="94" y="456" width="178" height="8" rx="3" fill="#e4e7eb"/>
    
  <text x="200" y="510" text-anchor="middle" font-family="system-ui,sans-serif" font-size="13" fill="#9ca3af">Q&A Format</text>
  
</svg>