<svg xmlns="http://www.w3.org/2000/svg" viewBox="0 0 400 520" width="400" height="520">
  <rect width="400" height="520" fill="#f8f9fa" rx="12"/>
  
  <rect x="30" y="20" width="340" height="478" rx="14" fill="white" stroke="#e5e7eb" stroke-width="1"/>
  <rect x="50" y="44" width="200" height="18" rx="4" fill="#6366f1" opacity="0.8"/>
  
    <rect x="50" y="82" width="300" height="42" rx="10" fill="#f8f9ff" stroke="#e0e7ff" stroke-width="1"/>
    <circle cx="76" cy="103" r="14" fill="#fbbf24"/>
    <text x="76" y="108" text-anchor="middle" font-family="system-ui,sans-serif" font-size="12" fill="white" font-weight="bold">1</text>
    <rect x="100" y="92" width="139" height="10" rx="3" fill="#818cf8" opacity="0.6"/>
    <rect x="100" y="108" width="88" height="7" rx="3" fill="#e4e7eb"/>
    <rect x="300" y="94" width="36" height="18" rx="9" fill="#eef2ff"/>
    
    <rect x="50" y="136" width="300" height="42" rx="10" fill="#f8f9ff" stroke="#e0e7ff" stroke-width="1"/>
    <circle cx="76" cy="157" r="14" fill="#d1d5db"/>
    <text x="76" y="162" text-anchor="middle" font-family="system-ui,sans-serif" font-size="12" fill="white" font-weight="bold">2</text>
    <rect x="100" y="146" width="147" height="10" rx="3" fill="#818cf8" opacity="0.6"/>
    <rect x="100" y="162" width="104" height="7" rx="3" fill="#e4e7eb"/>
    <rect x="300" y="148" width="36" height="18" rx="9" fill="#eef2ff"/>
    
    <rect x="50" y="190" width="300" height="42" rx="10" fill="#f8f9ff" stroke="#e0e7ff" stroke-width="1"/>
    <circle cx="76" cy="211" r="14" fill="#d97706"/>
    <text x="76" y="216" text-anchor="middle" font-family="system-ui,sans-serif" font-size="12" fill="white" font-weight="bold">3</text>
    <rect x="100" y="200" width="128" height="10" rx="3" fill="#818cf8" opacity="0.6"/>
    <rect x="100" y="216" width="93" height="7" rx="3" fill="#e4e7eb"/>
    <rect x="300" y="202" width="36" height="18" rx="9" fill="#eef2ff"/>
    
    <rect x="50" y="244" width="300" height="42" rx="10" fill="#f8f9fa" stroke="#f0f0f0" stroke-width="1"/>
    <text x="76" y="270" text-anchor="middle" font-family="system-ui,sans-serif" font-size="14" fill="#9ca3af" font-weight="bold">4</text>
    <rect x="100" y="254" width="147" height="10" rx="3" fill="#c5cdd6" opacity="0.6"/>
    <rect x="100" y="270" width="104" height="7" rx="3" fill="#e4e7eb"/>
    <rect x="300" y="256" width="36" height="18" rx="9" fill="#f3f4f6"/>
    
    <rect x="50" y="298" width="300" height="42" rx="10" fill="#f8f9fa" stroke="#f0f0f0" stroke-width="1"/>
    <text x="76" y="324" text-anchor="middle" font-family="system-ui,sans-serif" font-size="14" fill="#9ca3af" font-weight="bold">5</text>
    <rect x="100" y="308" width="132" height="10" rx="3" fill="#c5cdd6" opacity="0.6"/>
    <rect x="100" y="324" width="105" height="7" rx="3" fill="#e4e7eb"/>
    <rect x="300" y="310" width="36" height="18" rx="9" fill="#f3f4f6"/>
    
    <rect x="50" y="352" width="300" height="42" rx="10" fill="#f8f9fa" stroke="#f0f0f0" stroke-width="1"/>
    <text x="76" y="378" text-anchor="middle" font-family="system-ui,sans-serif" font-size="14" fill="#9ca3af" font-weight="bold">6</text>
    <rect x="100" y="362" width="133" height="10" rx="3" fill="#c5cdd6" opacity="0.6"/>
    <rect x="100" y="378" width="101" height="7" rx="3" fill="#e4e7eb"/>
    <rect x="300" y="364" width="36" height="18" rx="9" fill="#f3f4f6"/>
    
    <rect x="50" y="406" width="300" height="42" rx="10" fill="#f8f9fa" stroke="#f0f0f0" stroke-width="1"/>
    <text x="76" y="432" text-anchor="middle" font-family="system-ui,sans-serif" font-size="14" fill="#9ca3af" font-weight="bold">7</text>
    <rect x="100" y="416" width="159" height="10" rx="3" fill="#c5cdd6" opacity="0.6"/>
    <rect x="100" y="432" width="96" height="7" rx="3" fill="#e4e7eb"/>
    <rect x="300" y="418" width="36" height="18" rx="9" fill="#f3f4f6"/>
    
  <text x="200" y="510" text-anchor="middle" font-family="system-ui,sans-serif" font-size="13" fill="#9ca3af">Ranking List</text>
  
</svg>