<svg xmlns="http://www.w3.org/2000/svg" viewBox="0 0 400 520" width="400" height="520">
  <rect width="400" height="520" fill="#f8f9fa" rx="12"/>
  
  <rect x="24" y="20" width="352" height="478" rx="14" fill="#fefce8" stroke="#fde68a" stroke-width="1"/>
  <rect x="60" y="48" width="40" height="52" rx="4" fill="#a16207" opacity="0.3"/>
  <rect x="66" y="54" width="28" height="40" rx="2" fill="#fbbf24" opacity="0.4"/>
  <rect x="72" y="62" width="16" height="3" rx="1" fill="#92400e" opacity="0.3"/>
  <rect x="72" y="68" width="16" height="3" rx="1" fill="#92400e" opacity="0.3"/>
  <rect x="72" y="74" width="10" height="3" rx="1" fill="#92400e" opacity="0.3"/>
  <rect x="112" y="52" width="180" height="14" rx="4" fill="#92400e" opacity="0.6"/>
  <rect x="112" y="74" width="140" height="10" rx="3" fill="#d0d5db"/>
  <line x1="50" y1="118" x2="350" y2="118" stroke="#fde68a" stroke-width="1"/>
  <rect x="50" y="132" width="8" height="120" rx="4" fill="#fbbf24" opacity="0.4"/>
  <text x="48" y="138" font-family="Georgia,serif" font-size="28" fill="#d97706" opacity="0.3">"</text>
  <rect x="72" y="142" width="270" height="10" rx="3" fill="#c5a050" opacity="0.4"/>
  <rect x="72" y="160" width="250" height="10" rx="3" fill="#c5a050" opacity="0.4"/>
  <rect x="72" y="178" width="220" height="10" rx="3" fill="#c5a050" opacity="0.4"/>
  <rect x="72" y="210" width="260" height="8" rx="3" fill="#e8dcc0"/>
  <rect x="72" y="226" width="240" height="8" rx="3" fill="#e8dcc0"/>
  <line x1="50" y1="256" x2="350" y2="256" stroke="#fde68a" stroke-width="1"/>
  <rect x="50" y="272" width="100" height="12" rx="4" fill="#92400e" opacity="0.5"/>
  <rect x="50" y="296" width="263" height="8" rx="3" fill="#e8dcc0"/><rect x="50" y="320" width="262" height="8" rx="3" fill="#e8dcc0"/><rect x="50" y="344" width="286" height="8" rx="3" fill="#e8dcc0"/><rect x="50" y="368" width="293" height="8" rx="3" fill="#e8dcc0"/><rect x="50" y="392" width="284" height="8" rx="3" fill="#e8dcc0"/><rect x="50" y="416" width="273" height="8" rx="3" fill="#e8dcc0"/><rect x="50" y="440" width="264" height="8" rx="3" fill="#e8dcc0"/>
  <text x="200" y="510" text-anchor="middle" font-family="system-ui,sans-serif" font-size="13" fill="#9ca3af">Reading Notes</text>
  
</svg>