<svg xmlns="http://www.w3.org/2000/svg" viewBox="0 0 400 520" width="400" height="520">
  <rect width="400" height="520" fill="#f8f9fa" rx="12"/>
  
  <rect x="40" y="30" width="320" height="400" rx="16" fill="white" stroke="#e0e0e0" stroke-width="1.5"/>
  <rect x="40" y="30" width="320" height="200" rx="16" fill="#e8ecf0"/>
  <rect x="40" y="214" width="320" height="216" rx="0" fill="white"/>
  <rect x="40" y="214" width="320" height="16" rx="0" fill="white"/>
  <circle cx="200" cy="130" r="40" fill="#c5cdd6" opacity="0.6"/>
  <polygon points="190,120 190,140 215,130" fill="white" opacity="0.8"/>
  <rect x="64" y="250" width="200" height="14" rx="4" fill="#d0d5db"/>
  <rect x="64" y="276" width="280" height="10" rx="3" fill="#e4e7eb"/>
  <rect x="64" y="296" width="260" height="10" rx="3" fill="#e4e7eb"/>
  <rect x="64" y="316" width="220" height="10" rx="3" fill="#e4e7eb"/>
  <rect x="64" y="350" width="90" height="30" rx="15" fill="#6c8eef" opacity="0.8"/>
  <rect x="75" y="361" width="68" height="8" rx="3" fill="white"/>
  <filter id="sc-shadow"><feDropShadow dx="0" dy="4" stdDeviation="8" flood-opacity="0.1"/></filter>
  <rect x="40" y="30" width="320" height="400" rx="16" fill="none" filter="url(#sc-shadow)" opacity="0.3"/>
  <text x="200" y="478" text-anchor="middle" font-family="system-ui,sans-serif" font-size="13" fill="#9ca3af">Single Card</text>
  
</svg>