<svg xmlns="http://www.w3.org/2000/svg" viewBox="0 0 400 520" width="400" height="520">
  <rect width="400" height="520" fill="#0f172a" rx="12"/>
  
  <rect x="24" y="10" width="352" height="498" rx="16" fill="#1f2937"/>
  <rect x="24" y="10" width="352" height="498" rx="16" fill="url(#storyGrad)" opacity="0.5"/>
  <defs><linearGradient id="storyGrad" x1="0" y1="0" x2="0" y2="1"><stop offset="0" stop-color="transparent"/><stop offset="0.5" stop-color="transparent"/><stop offset="1" stop-color="#000" stop-opacity="0.7"/></linearGradient></defs>
  <rect x="24" y="10" width="352" height="498" rx="16" fill="#374151" opacity="0.3"/>
  <circle cx="200" cy="200" r="60" fill="#4b5563" opacity="0.4"/>
  <rect x="44" y="24" width="40" height="40" rx="20" fill="#6b7280"/>
  <rect x="92" y="32" width="80" height="10" rx="3" fill="#9ca3af"/>
  <rect x="92" y="48" width="50" height="7" rx="3" fill="#6b7280"/>
  <rect x="50" y="386" width="260" height="16" rx="4" fill="rgba(255,255,255,0.9)"/>
  <rect x="50" y="412" width="300" height="10" rx="3" fill="rgba(255,255,255,0.5)"/>
  <rect x="50" y="430" width="280" height="10" rx="3" fill="rgba(255,255,255,0.5)"/>
  <rect x="50" y="448" width="200" height="10" rx="3" fill="rgba(255,255,255,0.5)"/>
  <rect x="50" y="474" width="80" height="28" rx="14" fill="rgba(255,255,255,0.2)" stroke="rgba(255,255,255,0.4)" stroke-width="1"/>
  <rect x="62" y="484" width="56" height="8" rx="3" fill="rgba(255,255,255,0.6)"/>
  <text x="200" y="520" text-anchor="middle" font-family="system-ui,sans-serif" font-size="0" fill="transparent">Story Style</text>
  
</svg>