<svg xmlns="http://www.w3.org/2000/svg" viewBox="0 0 400 520" width="400" height="520">
  <rect width="400" height="520" fill="#f8f9fa" rx="12"/>
  
  <rect x="24" y="20" width="352" height="440" rx="16" fill="white" stroke="#e5e7eb" stroke-width="1.5"/>
  <rect x="24" y="20" width="352" height="280" rx="16" fill="#e8ecf0"/>
  <rect x="24" y="284" width="352" height="16" rx="0" fill="white"/>
  <circle cx="200" cy="160" r="50" fill="#c5cdd6" opacity="0.5"/>
  <rect x="180" y="148" width="40" height="24" rx="4" fill="white" opacity="0.7"/>
  <polygon points="192,153 192,167 208,160" fill="#c5cdd6"/>
  <rect x="50" y="318" width="200" height="14" rx="4" fill="#d0d5db"/>
  <rect x="50" y="342" width="290" height="10" rx="3" fill="#e4e7eb"/>
  <rect x="50" y="360" width="260" height="10" rx="3" fill="#e4e7eb"/>
  <rect x="50" y="390" width="80" height="28" rx="14" fill="#6c8eef" opacity="0.8"/>
  <rect x="62" y="400" width="56" height="8" rx="3" fill="white"/>
  <circle cx="164" cy="480" r="5" fill="#6366f1"/><circle cx="182" cy="480" r="4" fill="#d0d5db"/><circle cx="200" cy="480" r="4" fill="#d0d5db"/><circle cx="218" cy="480" r="4" fill="#d0d5db"/><circle cx="236" cy="480" r="4" fill="#d0d5db"/>
  <text x="200" y="508" text-anchor="middle" font-family="system-ui,sans-serif" font-size="13" fill="#9ca3af">Swipe Carousel</text>
  
</svg>