<svg xmlns="http://www.w3.org/2000/svg" viewBox="0 0 400 520" width="400" height="520">
  <rect width="400" height="520" fill="#f8f9fa" rx="12"/>
  
  <rect x="30" y="20" width="340" height="470" rx="14" fill="white" stroke="#e5e7eb" stroke-width="1"/>
  <rect x="60" y="40" width="160" height="16" rx="4" fill="#6366f1" opacity="0.8"/>
  
    <circle cx="80" cy="102" r="14" fill="#6366f1"/>
    <text x="80" y="107" text-anchor="middle" font-family="system-ui,sans-serif" font-size="12" fill="white" font-weight="bold">1</text>
    <line x1="80" y1="116" x2="80" y2="168" stroke="#e0e0e0" stroke-width="2" stroke-dasharray="4,3"/>
    <rect x="108" y="90" width="130" height="12" rx="4" fill="#c5cdd6"/>
    <rect x="108" y="108" width="220" height="8" rx="3" fill="#e8ecf0"/>
    <rect x="108" y="122" width="180" height="8" rx="3" fill="#e8ecf0"/>
    
    <circle cx="80" cy="184" r="14" fill="#8b5cf6"/>
    <text x="80" y="189" text-anchor="middle" font-family="system-ui,sans-serif" font-size="12" fill="white" font-weight="bold">2</text>
    <line x1="80" y1="198" x2="80" y2="250" stroke="#e0e0e0" stroke-width="2" stroke-dasharray="4,3"/>
    <rect x="108" y="172" width="130" height="12" rx="4" fill="#c5cdd6"/>
    <rect x="108" y="190" width="220" height="8" rx="3" fill="#e8ecf0"/>
    <rect x="108" y="204" width="180" height="8" rx="3" fill="#e8ecf0"/>
    
    <circle cx="80" cy="266" r="14" fill="#a78bfa"/>
    <text x="80" y="271" text-anchor="middle" font-family="system-ui,sans-serif" font-size="12" fill="white" font-weight="bold">3</text>
    <line x1="80" y1="280" x2="80" y2="332" stroke="#e0e0e0" stroke-width="2" stroke-dasharray="4,3"/>
    <rect x="108" y="254" width="130" height="12" rx="4" fill="#c5cdd6"/>
    <rect x="108" y="272" width="220" height="8" rx="3" fill="#e8ecf0"/>
    <rect x="108" y="286" width="180" height="8" rx="3" fill="#e8ecf0"/>
    
    <circle cx="80" cy="348" r="14" fill="#c4b5fd"/>
    <text x="80" y="353" text-anchor="middle" font-family="system-ui,sans-serif" font-size="12" fill="white" font-weight="bold">4</text>
    <line x1="80" y1="362" x2="80" y2="414" stroke="#e0e0e0" stroke-width="2" stroke-dasharray="4,3"/>
    <rect x="108" y="336" width="130" height="12" rx="4" fill="#c5cdd6"/>
    <rect x="108" y="354" width="220" height="8" rx="3" fill="#e8ecf0"/>
    <rect x="108" y="368" width="180" height="8" rx="3" fill="#e8ecf0"/>
    
    <circle cx="80" cy="430" r="14" fill="#ddd6fe"/>
    <text x="80" y="435" text-anchor="middle" font-family="system-ui,sans-serif" font-size="12" fill="white" font-weight="bold">5</text>
    
    <rect x="108" y="418" width="130" height="12" rx="4" fill="#c5cdd6"/>
    <rect x="108" y="436" width="220" height="8" rx="3" fill="#e8ecf0"/>
    <rect x="108" y="450" width="180" height="8" rx="3" fill="#e8ecf0"/>
    
  <text x="200" y="506" text-anchor="middle" font-family="system-ui,sans-serif" font-size="13" fill="#9ca3af">Timeline Steps</text>
  
</svg>