<svg xmlns="http://www.w3.org/2000/svg" viewBox="0 0 400 520" width="400" height="520">
  <rect width="400" height="520" fill="#f8f9fa" rx="12"/>
  
  <rect x="30" y="20" width="340" height="470" rx="14" fill="white" stroke="#e5e7eb" stroke-width="1"/>
  <rect x="50" y="40" width="180" height="18" rx="4" fill="#f59e0b" opacity="0.85"/>
  
    <circle cx="72" cy="98" r="20" fill="#fef3c7" stroke="#f59e0b" stroke-width="2"/>
    <text x="72" y="104" text-anchor="middle" font-family="system-ui,sans-serif" font-size="16" fill="#f59e0b" font-weight="bold">1</text>
    <path d="M72 118 L72 138 L78 132 M72 138 L66 132" fill="none" stroke="#fcd34d" stroke-width="2" stroke-linecap="round"/>
    <rect x="104" y="86" width="140" height="12" rx="4" fill="#d0d5db"/>
    <rect x="104" y="104" width="240" height="8" rx="3" fill="#e8ecf0"/>
    <rect x="104" y="118" width="200" height="8" rx="3" fill="#e8ecf0"/>
    <rect x="104" y="138" width="240" height="36" rx="8" fill="#fef9e7" stroke="#fde68a" stroke-width="1"/>
    
    <circle cx="72" cy="202" r="20" fill="#fef3c7" stroke="#f59e0b" stroke-width="2"/>
    <text x="72" y="208" text-anchor="middle" font-family="system-ui,sans-serif" font-size="16" fill="#f59e0b" font-weight="bold">2</text>
    <path d="M72 222 L72 242 L78 236 M72 242 L66 236" fill="none" stroke="#fcd34d" stroke-width="2" stroke-linecap="round"/>
    <rect x="104" y="190" width="140" height="12" rx="4" fill="#d0d5db"/>
    <rect x="104" y="208" width="240" height="8" rx="3" fill="#e8ecf0"/>
    <rect x="104" y="222" width="200" height="8" rx="3" fill="#e8ecf0"/>
    <rect x="104" y="242" width="240" height="36" rx="8" fill="#fef9e7" stroke="#fde68a" stroke-width="1"/>
    
    <circle cx="72" cy="306" r="20" fill="#fef3c7" stroke="#f59e0b" stroke-width="2"/>
    <text x="72" y="312" text-anchor="middle" font-family="system-ui,sans-serif" font-size="16" fill="#f59e0b" font-weight="bold">3</text>
    <path d="M72 326 L72 346 L78 340 M72 346 L66 340" fill="none" stroke="#fcd34d" stroke-width="2" stroke-linecap="round"/>
    <rect x="104" y="294" width="140" height="12" rx="4" fill="#d0d5db"/>
    <rect x="104" y="312" width="240" height="8" rx="3" fill="#e8ecf0"/>
    <rect x="104" y="326" width="200" height="8" rx="3" fill="#e8ecf0"/>
    <rect x="104" y="346" width="240" height="36" rx="8" fill="#fef9e7" stroke="#fde68a" stroke-width="1"/>
    
    <circle cx="72" cy="410" r="20" fill="#fef3c7" stroke="#f59e0b" stroke-width="2"/>
    <text x="72" y="416" text-anchor="middle" font-family="system-ui,sans-serif" font-size="16" fill="#f59e0b" font-weight="bold">4</text>
    
    <rect x="104" y="398" width="140" height="12" rx="4" fill="#d0d5db"/>
    <rect x="104" y="416" width="240" height="8" rx="3" fill="#e8ecf0"/>
    <rect x="104" y="430" width="200" height="8" rx="3" fill="#e8ecf0"/>
    <rect x="104" y="450" width="240" height="36" rx="8" fill="#fef9e7" stroke="#fde68a" stroke-width="1"/>
    
  <text x="200" y="506" text-anchor="middle" font-family="system-ui,sans-serif" font-size="13" fill="#9ca3af">Tutorial How-To</text>
  
</svg>